<?xml version="1.0" standalone="no"?>
<!DOCTYPE svg PUBLIC "-//W3C//DTD SVG 20010904//EN"
 "http://www.w3.org/TR/2001/REC-SVG-20010904/DTD/svg10.dtd">
<svg version="1.0" xmlns="http://www.w3.org/2000/svg"
 width="512.000000pt" height="512.000000pt" viewBox="0 0 512.000000 512.000000"
 preserveAspectRatio="xMidYMid meet">
<metadata>
Created by potrace 1.14, written by Peter Selinger 2001-2017
</metadata>
<g transform="translate(0.000000,512.000000) scale(0.100000,-0.100000)"
fill="#000000" stroke="none">
<path d="M2280 5084 c-52 -7 -107 -10 -122 -7 -16 3 -28 1 -28 -4 0 -5 -6 -10
-12 -10 -7 -1 -47 -8 -88 -17 -41 -9 -95 -19 -119 -21 -24 -3 -49 -9 -56 -15
-16 -14 -217 -81 -223 -75 -3 2 -14 -1 -26 -7 -11 -7 -27 -13 -34 -14 -7 -1
-19 -7 -26 -13 -20 -17 -309 -161 -323 -161 -7 0 -13 -4 -13 -8 0 -5 -12 -15
-27 -23 -16 -8 -33 -21 -40 -29 -7 -8 -13 -11 -13 -7 0 5 -7 2 -15 -7 -9 -8
-69 -58 -134 -111 -148 -118 -305 -274 -412 -408 -44 -56 -94 -116 -110 -133
-16 -17 -29 -39 -29 -48 0 -9 -4 -16 -8 -16 -10 0 -50 -54 -54 -72 -2 -7 -7
-16 -13 -20 -5 -4 -10 -13 -10 -20 0 -13 -110 -234 -126 -254 -5 -6 -6 -14 -2
-17 3 -4 2 -7 -4 -7 -10 0 -49 -88 -45 -102 2 -10 -58 -190 -68 -203 -9 -12
-25 -76 -21 -89 3 -14 -19 -118 -36 -163 -8 -23 -13 -51 -11 -61 3 -9 1 -42
-3 -72 -9 -58 -24 -284 -22 -335 4 -138 11 -233 17 -243 4 -7 7 -43 8 -82 0
-38 4 -70 8 -70 7 0 19 -60 25 -130 2 -14 10 -43 18 -66 9 -23 18 -59 21 -80
2 -21 12 -53 21 -71 9 -18 19 -49 22 -70 3 -21 11 -45 18 -53 12 -15 48 -100
46 -110 -2 -11 11 -40 18 -40 6 0 34 -61 37 -85 4 -26 17 -54 23 -51 3 2 19
-18 34 -46 15 -27 22 -46 15 -42 -14 8 1 -12 39 -54 12 -13 27 -39 33 -58 6
-19 15 -34 19 -34 9 0 68 -81 70 -95 0 -5 19 -29 41 -52 22 -23 40 -48 40 -55
0 -7 22 -32 50 -56 27 -24 49 -48 47 -55 -1 -7 4 -11 10 -10 7 2 12 0 11 -5
-1 -4 24 -33 55 -65 31 -32 57 -55 57 -51 0 4 16 -7 35 -26 19 -18 31 -38 28
-43 -4 -6 0 -8 10 -4 10 4 16 2 14 -5 -1 -7 3 -12 8 -13 17 0 85 -57 80 -65
-3 -4 16 -18 42 -30 25 -12 61 -37 79 -55 18 -18 34 -31 37 -29 8 8 87 -45 87
-57 0 -6 7 -8 16 -5 8 3 12 2 9 -4 -3 -6 2 -10 12 -10 10 0 42 -16 71 -35 28
-20 52 -33 52 -30 0 8 98 -43 105 -55 3 -5 16 -10 28 -10 12 0 45 -12 72 -26
28 -14 63 -27 78 -30 15 -3 44 -13 65 -22 20 -8 40 -15 45 -14 4 1 7 -3 7 -8
0 -6 6 -10 13 -8 16 3 83 -11 116 -24 31 -13 31 -13 101 -22 30 -4 60 -12 67
-18 7 -6 22 -8 33 -5 11 3 18 2 16 -1 -2 -4 22 -7 54 -8 32 -1 66 -5 77 -9 33
-14 384 -22 455 -10 21 3 68 7 105 9 38 1 74 5 81 10 6 4 17 4 22 1 6 -4 16
-2 23 3 11 9 76 22 142 28 55 6 100 16 111 25 15 13 139 49 183 54 19 3 39 9
45 15 5 5 18 10 29 10 11 0 15 4 11 12 -4 7 -3 8 5 4 6 -4 17 -3 24 2 21 18
248 121 241 110 -4 -6 2 -6 15 1 11 7 21 16 21 22 0 6 5 7 10 4 6 -3 13 1 16
9 3 9 10 14 14 11 4 -3 21 5 38 18 16 12 51 38 78 57 256 187 355 272 488 419
81 89 168 200 226 286 18 28 46 64 62 81 16 17 30 38 32 47 1 8 14 31 29 50
15 20 26 40 25 44 -4 11 102 244 120 265 8 10 15 29 15 42 0 14 3 23 8 20 5
-3 8 5 7 18 -1 25 49 196 64 215 6 7 7 17 3 23 -3 5 -1 10 5 10 6 0 10 10 9
23 -3 26 21 165 32 188 5 9 11 65 14 124 3 60 8 112 11 117 3 5 4 70 3 146 -2
75 -3 169 -3 209 0 39 -4 69 -8 67 -5 -3 -9 10 -9 28 -6 121 -9 149 -18 167
-6 11 -14 48 -18 83 -3 35 -9 65 -13 68 -10 8 -40 122 -34 132 3 5 -1 17 -9
26 -15 18 -34 70 -43 119 -3 15 -9 30 -13 33 -11 8 -41 87 -41 110 0 10 -6 23
-12 27 -14 9 -48 76 -54 106 -1 9 -10 24 -19 33 -18 19 -58 94 -49 94 3 0 -11
19 -30 42 -20 23 -40 56 -44 73 -5 16 -11 28 -15 25 -8 -5 -66 78 -66 93 0 5
-11 18 -24 30 -36 33 -94 102 -77 93 8 -5 -8 12 -37 38 -28 26 -54 54 -58 64
-3 9 -26 33 -50 52 -25 19 -48 43 -51 53 -3 9 -11 17 -17 17 -7 1 -32 19 -57
42 -25 23 -38 37 -30 33 13 -8 13 -7 1 8 -8 10 -16 15 -19 13 -7 -7 -92 55
-87 64 2 3 -14 14 -35 24 -22 9 -55 32 -74 51 -19 18 -37 31 -39 29 -3 -3 -25
8 -51 24 -25 16 -43 32 -40 35 3 3 -10 10 -30 15 -19 6 -56 24 -81 41 -25 17
-50 31 -55 31 -14 0 -83 33 -102 49 -10 8 -18 11 -18 8 0 -8 -100 31 -119 46
-7 6 -23 12 -35 13 -29 1 -96 24 -123 41 -12 8 -26 12 -31 9 -9 -5 -92 17
-127 34 -11 5 -27 9 -35 8 -30 -4 -130 15 -124 23 3 5 -10 7 -28 5 -18 -2 -59
1 -93 6 -96 15 -457 17 -565 2z"/>
</g>
</svg>
